<mxfile host="Electron" modified="2024-02-06T11:24:36.325Z" agent="Mozilla/5.0 (Macintosh; Intel Mac OS X 10_15_7) AppleWebKit/537.36 (KHTML, like Gecko) draw.io/22.1.2 Chrome/114.0.5735.289 Electron/25.9.4 Safari/537.36" etag="_ILL2ydKtkiKNURk5d_B" version="22.1.2" type="device">
  <diagram name="Page-1" id="_r3kl1-koKx7acnaHpwo">
    <mxGraphModel dx="892" dy="671" grid="1" gridSize="10" guides="1" tooltips="1" connect="1" arrows="1" fold="1" page="1" pageScale="1" pageWidth="827" pageHeight="1169" math="0" shadow="0">
      <root>
        <mxCell id="0" />
        <mxCell id="1" parent="0" />
        <mxCell id="9PtLLyBmGjVVanR9wFyo-1" value="ProZex86" style="shape=umlFrame;whiteSpace=wrap;html=1;pointerEvents=0;recursiveResize=0;container=1;collapsible=0;width=160;" vertex="1" parent="1">
          <mxGeometry x="40" y="40" width="720" height="600" as="geometry" />
        </mxCell>
        <mxCell id="9PtLLyBmGjVVanR9wFyo-2" value="Spieler" style="shape=umlActor;verticalLabelPosition=bottom;verticalAlign=top;html=1;" vertex="1" parent="9PtLLyBmGjVVanR9wFyo-1">
          <mxGeometry x="60" y="330" width="30" height="60" as="geometry" />
        </mxCell>
        <mxCell id="9PtLLyBmGjVVanR9wFyo-5" value="" style="rounded=0;whiteSpace=wrap;html=1;" vertex="1" parent="9PtLLyBmGjVVanR9wFyo-1">
          <mxGeometry x="160" y="80" width="520" height="480" as="geometry" />
        </mxCell>
        <mxCell id="9PtLLyBmGjVVanR9wFyo-11" value="" style="shape=ellipse;container=1;horizontal=1;horizontalStack=0;resizeParent=1;resizeParentMax=0;resizeLast=0;html=1;dashed=0;collapsible=0;shadow=1;fillColor=#cce5ff;strokeColor=#36393d;" vertex="1" parent="9PtLLyBmGjVVanR9wFyo-1">
          <mxGeometry x="220" y="150" width="180" height="120" as="geometry" />
        </mxCell>
        <mxCell id="9PtLLyBmGjVVanR9wFyo-12" value="Zahlenfolge eingeben" style="html=1;strokeColor=none;fillColor=none;align=center;verticalAlign=middle;rotatable=0;whiteSpace=wrap;" vertex="1" parent="9PtLLyBmGjVVanR9wFyo-11">
          <mxGeometry y="45" width="180" height="30" as="geometry" />
        </mxCell>
        <mxCell id="9PtLLyBmGjVVanR9wFyo-14" style="rounded=0;orthogonalLoop=1;jettySize=auto;html=1;entryX=0.5;entryY=0.5;entryDx=0;entryDy=0;entryPerimeter=0;exitX=0;exitY=0.5;exitDx=0;exitDy=0;endArrow=none;endFill=0;" edge="1" parent="9PtLLyBmGjVVanR9wFyo-1" source="9PtLLyBmGjVVanR9wFyo-12" target="9PtLLyBmGjVVanR9wFyo-2">
          <mxGeometry relative="1" as="geometry" />
        </mxCell>
        <mxCell id="9PtLLyBmGjVVanR9wFyo-16" value="" style="shape=ellipse;container=1;horizontal=1;horizontalStack=0;resizeParent=1;resizeParentMax=0;resizeLast=0;html=1;dashed=0;collapsible=0;fillColor=#cce5ff;strokeColor=#36393d;" vertex="1" parent="9PtLLyBmGjVVanR9wFyo-1">
          <mxGeometry x="420" y="380" width="180" height="120" as="geometry" />
        </mxCell>
        <mxCell id="9PtLLyBmGjVVanR9wFyo-17" value="Eingabe 端berpr端fen" style="html=1;strokeColor=none;fillColor=none;align=center;verticalAlign=middle;rotatable=0;whiteSpace=wrap;" vertex="1" parent="9PtLLyBmGjVVanR9wFyo-16">
          <mxGeometry y="45" width="180" height="30" as="geometry" />
        </mxCell>
        <mxCell id="9PtLLyBmGjVVanR9wFyo-19" style="rounded=0;orthogonalLoop=1;jettySize=auto;html=1;entryX=0.5;entryY=0.5;entryDx=0;entryDy=0;entryPerimeter=0;exitX=0;exitY=0.5;exitDx=0;exitDy=0;endArrow=none;endFill=0;" edge="1" parent="9PtLLyBmGjVVanR9wFyo-1" source="9PtLLyBmGjVVanR9wFyo-17" target="9PtLLyBmGjVVanR9wFyo-2">
          <mxGeometry relative="1" as="geometry" />
        </mxCell>
        <mxCell id="9PtLLyBmGjVVanR9wFyo-6" value="" style="shape=ellipse;container=1;horizontal=1;horizontalStack=0;resizeParent=1;resizeParentMax=0;resizeLast=0;html=1;dashed=0;collapsible=0;fillColor=#cce5ff;strokeColor=#36393d;" vertex="1" parent="9PtLLyBmGjVVanR9wFyo-1">
          <mxGeometry x="420" y="220" width="180" height="120" as="geometry" />
        </mxCell>
        <mxCell id="9PtLLyBmGjVVanR9wFyo-7" value="zur端ck zum Hauptmen端" style="html=1;strokeColor=none;fillColor=none;align=center;verticalAlign=middle;rotatable=0;whiteSpace=wrap;" vertex="1" parent="9PtLLyBmGjVVanR9wFyo-6">
          <mxGeometry y="45" width="180" height="30" as="geometry" />
        </mxCell>
        <mxCell id="9PtLLyBmGjVVanR9wFyo-15" style="orthogonalLoop=1;jettySize=auto;html=1;entryX=0.5;entryY=0.5;entryDx=0;entryDy=0;entryPerimeter=0;rounded=0;exitX=0;exitY=0.5;exitDx=0;exitDy=0;endArrow=none;endFill=0;" edge="1" parent="9PtLLyBmGjVVanR9wFyo-1" source="9PtLLyBmGjVVanR9wFyo-7" target="9PtLLyBmGjVVanR9wFyo-2">
          <mxGeometry relative="1" as="geometry" />
        </mxCell>
        <mxCell id="9PtLLyBmGjVVanR9wFyo-28" value="RAM Minigame" style="text;html=1;strokeColor=none;fillColor=none;align=center;verticalAlign=middle;whiteSpace=wrap;rounded=0;" vertex="1" parent="9PtLLyBmGjVVanR9wFyo-1">
          <mxGeometry x="180" y="100" width="90" height="30" as="geometry" />
        </mxCell>
      </root>
    </mxGraphModel>
  </diagram>
</mxfile>
